<?xml version="1.0" standalone="no"?>
<!DOCTYPE svg PUBLIC "-//W3C//DTD SVG 1.1//EN" "http://www.w3.org/Graphics/SVG/1.1/DTD/svg11.dtd" >
<svg xmlns="http://www.w3.org/2000/svg">
<metadata>
Created by FontForge 20120731 at Wed Jan  4 09:59:44 2017
 By admin
</metadata>
<defs>
<font id="iconfont" horiz-adv-x="1024" >
  <font-face 
    font-family="iconfont"
    font-weight="500"
    font-stretch="normal"
    units-per-em="1024"
    panose-1="2 0 6 3 0 0 0 0 0 0"
    ascent="896"
    descent="-128"
    x-height="792"
    bbox="0 -211 1029.25 896"
    underline-thickness="0"
    underline-position="0"
    unicode-range="U+0078-E6AA"
  />
<missing-glyph 
 />
    <glyph glyph-name=".notdef" 
 />
    <glyph glyph-name=".notdef" 
 />
    <glyph glyph-name=".null" horiz-adv-x="0" 
 />
    <glyph glyph-name="nonmarkingreturn" horiz-adv-x="341" 
 />
    <glyph glyph-name="x" unicode="x" horiz-adv-x="1001" 
d="M281 543q-27 -1 -53 -1h-83q-18 0 -36.5 -6t-32.5 -18.5t-23 -32t-9 -45.5v-76h912v41q0 16 -0.5 30t-0.5 18q0 13 -5 29t-17 29.5t-31.5 22.5t-49.5 9h-133v-97h-438v97zM955 310v-52q0 -23 0.5 -52t0.5 -58t-10.5 -47.5t-26 -30t-33 -16t-31.5 -4.5q-14 -1 -29.5 -0.5
t-29.5 0.5h-32l-45 128h-439l-44 -128h-29h-34q-20 0 -45 1q-25 0 -41 9.5t-25.5 23t-13.5 29.5t-4 30v167h911zM163 247q-12 0 -21 -8.5t-9 -21.5t9 -21.5t21 -8.5q13 0 22 8.5t9 21.5t-9 21.5t-22 8.5zM316 123q-8 -26 -14 -48q-5 -19 -10.5 -37t-7.5 -25t-3 -15t1 -14.5
t9.5 -10.5t21.5 -4h37h67h81h80h64h36q23 0 34 12t2 38q-5 13 -9.5 30.5t-9.5 34.5q-5 19 -11 39h-368zM336 498v228q0 11 2.5 23t10 21.5t20.5 15.5t34 6h188q31 0 51.5 -14.5t20.5 -52.5v-227h-327z" />
    <glyph glyph-name="icontishi" unicode="&#xe669;" 
d="M921 475q-36 81 -96 141t-141 96q-81 35 -173.5 35t-173.5 -35q-81 -36 -141.5 -96t-95.5 -141q-35 -82 -35 -174.5t35 -173.5q35 -80 95.5 -140.5t141.5 -95.5q82 -35 174 -35t173 35t141 95t95.5 141t35.5 173.5t-35 174.5v0v0zM568 252v-175q0 -7 -6 -11.5t-15 -4.5
h-74q-9 0 -15 4.5t-6 11.5v176l1 112q0 7 6 11.5t15 4.5h73q9 0 15.5 -4.5t6.5 -11.5l-1 -113v0v0zM569 467q0 -10 -6.5 -17t-15.5 -7h-74q-8 0 -14.5 7t-6.5 17v40q0 10 6 17q7 7 15 7h74q9 0 15 -7q7 -7 7 -17v-40v0v0z" />
    <glyph glyph-name="biaoqing" unicode="&#xe62c;" horiz-adv-x="1029" 
d="M514 -211q-103 0 -197 38.5t-166.5 111t-111.5 166t-39 195.5t39 195.5t111.5 166t166.5 111t197 38.5t197 -38.5t167 -111.5q98 -98 133.5 -229.5t0 -263t-133.5 -229.5q-73 -73 -167 -111.5t-197 -38.5v0v0v0v0zM514 744q-89 0 -171 -33.5t-145 -96.5t-97 -144
t-34 -170t34 -170t97 -144t144.5 -96.5t171.5 -33.5t171.5 33.5t144.5 96.5q65 64 98 147t33 167t-33 167t-98 147q-63 63 -144.5 96.5t-171.5 33.5v0v0v0v0zM331 161q3 -4 7.5 -10.5t21.5 -23t36.5 -29t51.5 -23t66 -10.5t67.5 10t57 23.5t42 28t27.5 24t9 10.5
q1 0 4.5 -0.5t11 -3t13.5 -7t11 -14.5t5 -23q-3 -5 -9.5 -12.5t-29 -26.5t-49 -34t-70 -27t-90.5 -12t-87.5 11.5t-64.5 28t-41.5 33t-24.5 27.5l-6 12v5t2 11.5t6 14.5t12.5 11.5t20.5 5.5v0v0v0zM365 464q-26 0 -44.5 -18t-18.5 -44t18.5 -44.5t44.5 -18.5t44.5 18.5
t18.5 44.5t-18.5 44t-44.5 18v0v0v0v0zM687 464q-26 0 -44.5 -18t-18.5 -44t18.5 -44.5t44.5 -18.5t44.5 18.5t18.5 44.5t-18.5 44t-44.5 18v0v0v0v0z" />
    <glyph glyph-name="yanjing1" unicode="&#xe69c;" 
d="M511 570q-60 0 -116 -18t-111.5 -55.5t-106.5 -83t-114 -112.5q4 -5 13 -15q37 -38 55.5 -57.5t53 -51.5t57 -49t57.5 -38.5t65 -32t68.5 -18.5t78.5 -8q41 0 81 9.5t72.5 22.5t69.5 36.5t61.5 42t58 49.5t50 48t46.5 48q7 7 10 11q-36 42 -67.5 76t-77.5 72.5t-90.5 64
t-100.5 42.5t-113 17v0zM511 121q-74 0 -126.5 52.5t-52.5 127t52.5 127t127 52.5t127 -52.5t52.5 -127t-52.5 -127t-127.5 -52.5v0zM511 405q-43 0 -73.5 -30.5t-30.5 -74t30.5 -74t74 -30.5t74 30.5t30.5 74t-30.5 74t-74.5 30.5v0zM511 405z" />
    <glyph glyph-name="sortup" unicode="&#xe600;" 
d="M175 483q13 -13 31 -13h612q17 0 30 13t13 30.5t-13 30.5l-306 306q-13 13 -30.5 13t-30.5 -13l-306 -306q-13 -13 -13 -30.5t13 -30.5v0zM175 483zM511.5 -68q-5.5 0 -9.5 4l-306 306q-4 4 -4 9.5t4 9.5t10 4h612q5 0 9 -4t4 -9.5t-4 -9.5l-306 -306q-4 -4 -9.5 -4z
M512 -98q18 0 30 13l306 306q13 13 13 30.5t-13 30.5t-30 13h-612q-18 0 -31 -13t-13 -30.5t13 -30.5l306 -306q13 -13 31 -13v0v0zM512 -98z" />
    <glyph glyph-name="sortdown" unicode="&#xe606;" 
d="M848 282q-13 13 -30 13h-612q-18 0 -31 -13t-13 -30.5t13 -30.5l306 -306q13 -13 30.5 -13t30.5 13l306 306q13 13 13 30.5t-13 30.5v0zM848 282zM511.5 833q5.5 0 9.5 -4l306 -306q4 -4 4 -9.5t-4 -9.5t-9 -4h-612q-6 0 -10 4t-4 9.5t4 9.5l306 306q4 4 9.5 4zM512 863
q-18 0 -31 -13l-306 -306q-13 -13 -13 -30.5t13 -30.5t31 -13h612q17 0 30 13t13 30.5t-13 30.5l-306 306q-12 13 -30 13v0v0zM512 863z" />
    <glyph glyph-name="kefu" unicode="&#xe639;" 
d="M517 88q7 0 15 1q37 4 66 28t40 60q2 6 -4 8.5t-9 -2.5q-2 -4 -7.5 -9.5t-30 -17t-58.5 -16.5q-17 -2 -33 -2q-53 0 -77 20q-5 5 -9.5 1t-1.5 -10q17 -28 46.5 -44.5t62.5 -16.5v0zM517 88zM926 559h-1.5h-0.5q-34 146 -151 241.5t-268 95.5q-156 0 -275 -100.5
t-148 -252.5q-28 -5 -47 -27.5t-19 -51.5v-160q0 -34 23.5 -57.5t56.5 -23.5q38 0 62 30q27 -70 78.5 -124.5t120.5 -84.5q2 3 4.5 6.5t4.5 3.5t3 -2q-27 21 -65 79t-49 131q-5 36 17.5 68t56.5 38q32 6 101.5 20t106.5 21q65 12 93 73q10 21 14 56q1 7 8 7q4 0 7 -4l2 1
q81 -117 89 -221q8 -89 -6 -145t-71 -108v0q-2 -2 -2 -5t3 -5q0 -1 1 -1h1q1 -1 1.5 -1t1.5 1q1 0 2 0.5t1 1.5q62 34 107.5 89t67.5 123q19 -28 52 -35q-26 -115 -120.5 -186.5t-227.5 -83.5q-7 20 -25 32t-40 12q-30 0 -50.5 -20t-20.5 -48.5t20.5 -49t50.5 -20.5
q23 0 41.5 13.5t25.5 34.5q153 13 261.5 98.5t132.5 222.5q23 9 37 29.5t14 45.5v162q0 33 -24 57t-58 24v0zM852 513q-40 108 -135 175.5t-212 67.5q-118 0 -212.5 -67t-134.5 -174q-2 3 -9 8q23 130 123 216t233 86q131 0 231 -85t124 -214q-6 -7 -8 -13v0zM852 513z
M357 44v0v0v0zM357 44z" />
    <glyph glyph-name="cny" unicode="&#xe6aa;" 
d="M786 781l-195 -360h154v-79h-181v-111h181v-80h-181v-159h-100v159h-187v80h187v111h-187v79h158l-193 360h113l135 -281q12 -23 26 -59h2q10 29 26 62l136 278h106z" />
    <glyph glyph-name="back-to-top" unicode="&#xe638;" 
d="M723 625h-425q-10 0 -17.5 -7.5t-7.5 -18t7.5 -18t17.5 -7.5h425q11 0 18 7.5t7 18t-7 18t-18 7.5zM717 354l-188 188q-8 8 -18 8h-1q-10 0 -18 -8l-188 -188q-7 -7 -7 -18v0q0 -10 7.5 -17.5t17.5 -7.5q11 0 19 8l144 144v-294q0 -11 7.5 -18.5t18 -7.5t18 7.5t7.5 18.5
v294l145 -145q7 -7 18 -7v0q11 0 18.5 7.5t7 18t-7.5 17.5z" />
    <glyph glyph-name="error" unicode="&#xe607;" 
d="M516.5 876q-101.5 0 -193.5 -39.5t-158.5 -106t-105.5 -158.5t-39 -193t39 -193t105.5 -158.5t158.5 -106t193.5 -39.5t193.5 39.5t158.5 106t105.5 158.5t39 193t-39 193t-105.5 158.5t-158.5 106t-193.5 39.5zM516.5 -68q-90.5 0 -173.5 35.5t-143 95t-95.5 142.5
t-35.5 174t35.5 173.5t95.5 142.5t143 95.5t173.5 35.5t173.5 -35.5t143 -95.5t95.5 -142.5t35.5 -173.5t-35.5 -174t-95.5 -142.5t-143 -95t-173.5 -35.5zM742 604q-9 9 -22 9t-22 -9l-182 -181l-181 181q-9 9 -22 9t-22 -9t-9 -21.5t9 -22.5l182 -181l-182 -182
q-9 -9 -9 -22t9 -22t22 -9t22 9l181 182l182 -182q9 -9 22 -9t22 9t9 22t-9 22l-182 182l182 181q9 10 9 22.5t-9 21.5v0z" />
    <glyph glyph-name="plus" unicode="&#xe60d;" 
d="M480 768v-768h63l1 768h-64zM896 416h-768v-63l768 -1v64z" />
    <glyph glyph-name="ahead" unicode="&#xe60e;" 
d="M942 180q-9 -9 -21.5 -9.5t-21.5 7.5l-370 370q-11 12 -17 12t-18 -12l-370 -370q-8 -8 -21 -7.5t-22 9.5t-9.5 22t8.5 22l411 411q7 7 18 7h5q12 0 19 -7l411 -411q8 -9 7.5 -22t-9.5 -22z" />
    <glyph glyph-name="home" unicode="&#xe610;" 
d="M299 -25q-12 5 -13 5q-37 10 -60.5 39.5t-23.5 67.5q-1 51 0 261q0 16 7 25t19.5 8.5t20 -9.5t7.5 -24v-123v-122q0 -39 16.5 -55.5t55.5 -16.5h369q36 0 52.5 16.5t16.5 53.5v120v120q0 20 4 24q16 15 29 15q10 -1 16 -8.5t6 -19.5v-177q0 -74 -1 -82q0 -44 -23 -73
t-65 -41l-9 -4h-424zM505 748q-13 -20 -14 -21q-117 -117 -374 -372q-13 -13 -20.5 -13.5t-18.5 10.5t-11 18.5t11 19.5l4 4q341 338 401 398q15 15 28 15t29 -15q243 -243 401 -400q14 -13 14.5 -20.5t-11.5 -19.5q-18 -19 -37 0q-3 4 -34 35q-261 259 -344 342
q-1 1 -12 19h-12z" />
    <glyph glyph-name="adown" unicode="&#xe612;" 
d="M942 589.5q-9 9.5 -21.5 10t-21.5 -7.5l-370 -370q-11 -12 -17 -12t-18 12l-370 370q-8 8 -21 7.5t-22 -10t-9.5 -22t8.5 -21.5l411 -411q7 -7 18 -8h5q12 1 19 8l411 411q8 9 7.5 21.5t-9.5 22z" />
    <glyph glyph-name="aleft" unicode="&#xe613;" 
d="M877 404zM731.5 -54.5q9.5 9.5 10 22.5t-7.5 22l-377 376q-12 12 -12 18t12 18l377 376q8 9 7.5 22t-10 22t-22.5 9.5t-22 -7.5l-418 -419q-7 -7 -8 -18v-6q1 -11 8 -18l418 -419q9 -8 22 -8t22.5 9.5z" />
    <glyph glyph-name="refresh" unicode="&#xe614;" 
d="M929.5 688q-13.5 0 -22.5 -9.5t-9 -22.5v-45q-60 101 -162.5 161t-223.5 60q-122 0 -225 -60t-163 -163t-60 -225t60 -225t163 -163t225 -60q110 0 205.5 50t157.5 137v0.5t1 0.5l1 1.5t2 2.5h-1q6 9 6 18q1 13 -8.5 22.5t-23.5 9.5q-19 0 -28 -18h-1
q-53 -74 -134.5 -117t-176.5 -43q-104 0 -192.5 51.5t-140 140t-51.5 192.5q0 159 112.5 271.5t271.5 112.5q110 0 201 -57t140 -151h-51q-14 0 -23 -9.5t-9 -22.5t9 -22.5t23 -9.5h128q13 0 22.5 9.5t9.5 22.5v128q0 13 -9.5 22.5t-23 9.5z" />
    <glyph glyph-name="aright" unicode="&#xe615;" 
d="M877 404zM298 -54.5q-9 9.5 -10 22.5t8 22l376 376q12 12 12 18t-12 18l-376 376q-9 9 -8 22t10 22t22.5 9.5t21.5 -7.5l419 -419q7 -7 7 -18v-6q0 -11 -7 -18l-419 -419q-8 -8 -21.5 -8t-22.5 9.5z" />
    <glyph glyph-name="close" unicode="&#xe616;" 
d="M885 61l-329 329l329 330q9 9 9 22t-9 22t-22 9t-22 -9l-329 -330l-329 330q-9 9 -22 9t-22 -9t-9 -22t9 -22l329 -330l-329 -329q-9 -9 -9 -22t9 -22t22 -9t22 9l329 329l329 -329q9 -9 22 -9t22 9t9 22t-9 22z" />
    <glyph glyph-name="share" unicode="&#xe617;" 
d="M928 416q-13 0 -22.5 -9.5t-9.5 -22.5v-320q0 -13 -9.5 -22.5t-22.5 -9.5h-704q-13 0 -22.5 9.5t-9.5 22.5v544q0 13 9.5 22.5t22.5 9.5h224v0v0q13 0 22.5 9.5t9.5 22.5t-9.5 22.5t-22.5 9.5q-1 0 -1.5 -0.5t-1.5 -0.5h-221q-39 0 -67.5 -28t-28.5 -68v-544
q0 -39 28.5 -67.5t67.5 -28.5h705q39 0 67.5 28.5t28.5 67.5v321h-1q0 13 -9.5 22.5t-22.5 9.5zM403 275q-3 -7 -3 -13q0 -13 9 -22.5t23 -9.5q11 0 19.5 7t10.5 19h1q28 142 135.5 241.5t253.5 116.5l-68 -68q-10 -9 -10 -22.5t9.5 -23t23 -9.5t22.5 10l123 122q9 10 9 23
t-9 23l-123 122q-9 9 -22.5 9t-23 -9t-9.5 -22.5t10 -22.5l67 -68q-166 -16 -290 -128t-158 -275z" />
    <glyph glyph-name="search" unicode="&#xe618;" 
d="M1013 -73l-270 239q57 59 88.5 136t31.5 162q0 117 -58 216.5t-157 157.5t-216 58t-216 -58t-156.5 -157.5t-57.5 -216.5t57.5 -216.5t156.5 -157.5t216 -58q147 0 263 91l273 -242q9 -9 22.5 -9t22.5 9.5t9 22.5t-9 23zM65 464q0 100 49.5 184.5t134 134t184 49.5
t184 -49.5t133.5 -134t49 -184.5t-49 -184.5t-133.5 -134t-184 -49.5t-184 49.5t-134 134t-49.5 184.5z" />
    <glyph glyph-name="warn" unicode="&#xe619;" 
d="M512 896q-104 0 -199 -40.5t-163.5 -109t-109 -163.5t-40.5 -199t40.5 -198.5t109 -163t163.5 -109t199 -40.5t199 40.5t163.5 109t109 163t40.5 198.5t-40.5 199t-109 163.5t-163.5 109t-199 40.5zM512 -63q-91 0 -174 35.5t-142.5 95.5t-95 142.5t-35.5 173.5t35.5 174
t95 143t142.5 95.5t174 35.5t174 -35.5t142.5 -95.5t95 -143t35.5 -174t-35.5 -173.5t-95 -142.5t-142.5 -95.5t-174 -35.5zM512 224v0q-14 0 -23 9.5t-9 22.5v384q0 13 9 22.5t23 9.5v0q13 0 22.5 -9.5t9.5 -22.5v-384q0 -13 -9.5 -22.5t-22.5 -9.5zM512 128zM480 128.5
q0 -13.5 9 -23t22.5 -9.5t23 9.5t9.5 23t-9.5 22.5t-23 9t-22.5 -9t-9 -22.5z" />
    <glyph glyph-name="right1" unicode="&#xe61a;" 
d="M512 896q-139 0 -257 -68.5t-186.5 -186.5t-68.5 -257t68.5 -257t186.5 -186.5t257 -68.5t257 68.5t186.5 186.5t68.5 257t-68.5 257t-186.5 186.5t-257 68.5v0v0zM512 -80q-192 0 -328 136t-136 328t136 328t328 136t328 -136t136 -328t-136 -328t-328 -136v0v0z
M833 552l-382 -382q-9 -9 -22.5 -9t-22.5 9l-215 215q-10 10 -10 23t9.5 22.5t23 9.5t22.5 -9l193 -193l359 360q9 9 22.5 9t23 -9.5t9.5 -22.5t-10 -23v0v0zM833 552z" />
    <glyph glyph-name="gift" unicode="&#xe61b;" 
d="M938 372h-30h-370v274h-50v-274h-395h-4q-31 0 -53 21.5t-22 52.5v175q0 31 22 53t53 22h90q-40 47 -40 100q0 27 10 47.5t25 30t29.5 15t24.5 6.5l11 1q53 0 100 -15.5t81 -42t56 -50t39 -50.5q17 27 39.5 51t56 50t79.5 41.5t98 15.5q4 0 11 -1t24 -7t30 -15.5
t24 -30.5t11 -49q0 -51 -35 -97h85q31 0 53 -22t22 -53v-175q0 -31 -22 -52.5t-53 -21.5zM264 821q-15 0 -26 -2.5t-15.5 -6t-6.5 -7.5t-2 -6v-3q0 -49 66 -100h173q-14 30 -30 52.5t-34 35.5t-33 21t-34.5 11.5t-30 4t-27.5 0.5zM763 819q-17 0 -27.5 -1t-29.5 -4
t-33.5 -11t-32 -20.5t-33.5 -34.5t-30 -52h177q59 50 59 97q2 0 0 6.5t-14 13t-36 6.5zM488 -128h-349q-31 0 -53 22t-22 53v375h424v-450zM538 322h400v-375q0 -31 -22 -53t-53 -22h-325v450z" />
    <glyph glyph-name="cry" unicode="&#xe61c;" 
d="M513.5 892q-103.5 0 -198 -40.5t-162.5 -108.5t-108.5 -162.5t-40.5 -198t40.5 -197.5t108.5 -162t162.5 -108.5t198 -40.5t197.5 40.5t162 108.5t108.5 162t40.5 197.5t-40.5 198t-108.5 162.5t-162 108.5t-197.5 40.5zM511 -59q-90 0 -172.5 35t-142 94.5t-94.5 141.5
t-35 172t35 172.5t94.5 141.5t142 94.5t172.5 35.5t172 -35.5t141.5 -94.5t94.5 -141.5t35 -172.5t-35 -172t-94.5 -141.5t-141.5 -94.5t-172 -35zM280 564.5q0 -24.5 17.5 -42t42 -17.5t42 17.5t17.5 42t-17.5 42t-42 17.5t-42 -17.5t-17.5 -42zM623 565q0 -25 17 -42.5
t42 -17.5t42 17.5t17 42.5v0q0 24 -17 41.5t-42 17.5t-42 -17.5t-17 -41.5v0zM332 138q18 0 27 16q23 43 65 69t92.5 26t92.5 -26t65 -69q9 -16 27 -16v0q18 0 26.5 14.5t0.5 30.5q-30 58 -87.5 93.5t-126 35.5t-125.5 -35.5t-88 -93.5q-8 -16 1 -30.5t26 -14.5h4z" />
    <glyph glyph-name="load" unicode="&#xe61d;" 
d="M1021 452q-5 32 -12 59q-10 37 -24 72q-31 72 -82 133q-56 66 -129 109q-72 43 -155 59q-45 9 -86 10q-34 0 -67 -3q-87 -9 -168 -47q-69 -32 -125 -82t-96 -114q-45 -74 -62 -154q-15 -68 -12 -132q3 -69 22 -127q13 -42 30 -77q18 -36 42 -69q47 -67 113 -115
q67 -50 148 -76q84 -26 171 -23t165 33q77 29 140 82q28 24 57 59t47 69q16 29 29 64q8 20 11 34q4 14 9 36q5 32 3 59l-5 -25q-4 -14 -10 -29q-5 -14 -25 -58q-15 -33 -38 -70q-12 -20 -23 -34q-9 -12 -27 -31q-28 -32 -61 -56q-36 -26 -73 -44q-77 -37 -165 -45
q-89 -8 -173 17q-81 24 -149 75q-65 49 -109 118q-46 68 -64 153q-4 20 -7 43q-2 21 -3 37q-1 39 5 78q13 86 55 159q38 66 96 117t129 80q40 16 85 24q26 5 45 7q3 0 10.5 0.5t10.5 0.5h5h4q77 1 146 -21q77 -24 140 -75q65 -52 107 -127q35 -61 50 -132q2 -11 6 -32
q2 -16 15 -24q14 -9 29.5 -4.5t22.5 19.5q4 10 2 20z" />
    <glyph glyph-name="remove" unicode="&#xe61f;" 
d="M804 773h-156q-6 51 -45 85.5t-91 34.5t-91 -34.5t-44 -85.5h-157q-48 0 -82 -34t-34 -82v-6q0 -35 20.5 -64.5t52.5 -41.5v-545q0 -47 34 -81t81 -34h440q47 0 81 34t34 81v545q32 12 52.5 41.5t20.5 64.5v6q0 48 -34 82t-82 34zM512 839q30 0 52.5 -19t27.5 -47h-160
q5 28 27.5 47t52.5 19zM792 0q0 -25 -17.5 -42.5t-42.5 -17.5h-440q-25 0 -42.5 17.5t-17.5 42.5v536h560v-536v0zM865 651q0 -25 -18 -42.5t-43 -17.5h-584q-25 0 -43 17.5t-18 42.5v6q0 25 18 43t43 18h584q25 0 43 -18t18 -43v-6zM365.5 10q11.5 0 19.5 8t8 19v308
q0 11 -8 19t-19.5 8t-19.5 -8t-8 -19v-308q0 -11 8 -19t19.5 -8zM512 10q11 0 19 8t8 19v308q0 11 -8 19t-19 8t-19 -8t-8 -19v-308q0 -11 8 -19t19 -8zM658.5 10q11.5 0 19.5 8t8 19v308q0 11 -8 19t-19.5 8t-19.5 -8t-8 -19v-308q0 -11 8 -19t19.5 -8z" />
    <glyph glyph-name="address" unicode="&#xe620;" 
d="M508 -123q-8 9 -21.5 25t-53 64t-75 95t-79.5 111.5t-75.5 121t-53 115t-21.5 101.5q0 103 50.5 190.5t138 138t190.5 50.5t190.5 -50.5t138.5 -138t51 -190.5q0 -59 -39 -145.5t-95 -169t-112 -155t-95 -118.5t-39 -45zM508 841q-90 0 -166 -45t-120.5 -122.5
t-44.5 -168.5q0 -52 34.5 -128.5t83 -149.5t97 -137.5t82.5 -104.5l34 -40q14 16 36 42t79 100.5t101 141.5t79.5 145.5t35.5 130.5q0 91 -44 168.5t-120.5 122.5t-166.5 45zM508.5 383q-65.5 0 -112 46.5t-46.5 112t46.5 112t112 46.5t111.5 -46.5t46 -112t-46 -112
t-111.5 -46.5zM508.5 656q-48.5 0 -82.5 -34.5t-34 -82.5t34 -82.5t82.5 -34.5t82.5 34.5t34 82.5t-34 82.5t-82.5 34.5z" />
    <glyph glyph-name="edit" unicode="&#xe621;" 
d="M1015 745q-6 -19 -9 -28t-10 -22t-16 -20q-76 -62 -153.5 -140t-166.5 -175t-143 -150l-12 -12q-19 -30 -44 -52t-56 -37t-57 -24t-64.5 -21.5t-60.5 -20.5q-16 -6 -35 15t-14 38q41 147 56 194q3 10 22 28q50 49 139.5 134.5t164 156.5t139.5 134q15 16 30.5 33t37.5 43
t29 34q33 38 74 40t77 -32q4 -4 16.5 -16t18.5 -18t14.5 -17t13 -22t6.5 -23q1 -2 3 -17q1 -1 0 -1.5t0 -1.5v0zM746 698q-222 -224 -425 -426q4 -4 32 -32.5t42 -42.5q147 144 430 421q-17 16 -43.5 43.5t-35.5 36.5v0zM780 759l1 -1l1 -1l2 -1l1 -1l1 -1l1 -1l1 -1l1 -1
l1 -1l1 -1l1 -1l1 -1l1 -1l1 -1l1 -1l1 -1l1 -1l1 -1l1 -1l1 -1l1 -1l1 -1l1 -1l1 -1l1 -1l1 -1l1 -1l1 -1l1 -1l1 -1l1 -1l1 -1l1 -1l1 -1h1l1 -1l2 -2l1 -1l1 -1l1 -1l1 -1l1 -1l1 -1l1 -1l1 -1l1 -1l1 -1l1 -1h1v-1l1 -1l1 -1l1 -1l1 -1l1 -1l1 -1l1 -1l1 -1l1 -1l1 -1
l1 -1h1l1 -1l1 -1l1 -1l1 -1l1 -1l1 -1l1 -1l1 -1l1 -1l1 -1l1 -1l1 -1l1 -1h1l1 -1l1 -1l1 -1l1 -1l1 -1l1 -1l1 -1v-1l1 -1l1 -1l1 -1l1 -1l1 -1l1 -1l1 -1l1 -1h1l1 -1l1 -1l1 -1l1 -1l1 -1l1 -1l1 -1l1 -1l1 -1l2 -1q20 27 21 29l26.5 26.5t14 20t6 16.5t-7.5 16
t-14.5 19.5t-27.5 26.5q-1 1 -2.5 2t-1.5 2q-28 25 -54 0q-5 -4 -64 -59v0zM251 120q38 15 81 33q-23 28 -51 60q-6 -19 -17 -52t-13 -41v0zM457 -115h-285q-87 1 -133 57q-30 35 -30 94q-1 434 0 568q1 76 45 119t120 44h155h154q14 0 22 -1.5t16 -8.5t9 -20q3 -31 -48 -31
h-150.5t-149.5 -1q-54 0 -83 -29.5t-29 -82.5q-1 -281 0 -548q0 -43 26 -70t69 -27q248 -1 585 -1q35 1 55.5 23.5t20.5 59.5q1 74 1 210v165q0 25 2 28q20 27 32 26q3 -1 6 -3t6 -5.5t5 -7t5 -8.5t5 -7v-17v-372q0 -78 -37.5 -116t-116.5 -38h-277v0v0zM457 -115z" />
    <glyph glyph-name="minus" unicode="&#xe622;" 
d="M906 358h-788q-11 0 -18.5 7.5t-7.5 18.5t7.5 18.5t18.5 7.5h788q11 0 18.5 -7.5t7.5 -18.5t-7.5 -18.5t-18.5 -7.5z" />
    <glyph glyph-name="error-f" unicode="&#xe623;" 
d="M512 896q-138 0 -256 -69t-187 -187t-69 -256t69 -256t187 -187t256 -69t256 69t187 187t69 256t-69 256t-187 187t-256 69zM762 179l-45 -45l-199 199l-198 -199l-45 45l199 199l-212 211l45 45l211 -212l212 212l44 -45l-211 -211z" />
    <glyph glyph-name="warn-f" unicode="&#xe624;" horiz-adv-x="1026" 
d="M512 896q-104 0 -198.5 -40.5t-163.5 -109.5t-109.5 -163.5t-40.5 -198.5t40.5 -198.5t109.5 -163.5t163.5 -109.5t198.5 -40.5t198.5 40.5t163.5 109.5t109.5 163.5t40.5 198.5t-40.5 198.5t-109.5 163.5t-163.5 109.5t-198.5 40.5zM512 80q-17 0 -30 12.5t-13 29.5
t13 30t30 13t30 -13t13 -30t-13 -29.5t-30 -12.5zM555 265q0 -18 -13 -30.5t-30 -12.5t-30 12.5t-13 30.5v369q0 17 13 30t30 13t30 -13t13 -30v-369z" />
    <glyph glyph-name="right-f" unicode="&#xe625;" 
d="M512 895q-104 0 -198.5 -40.5t-163 -109t-109 -163t-40.5 -198.5t40.5 -198.5t109 -163t163 -109t198.5 -40.5t198.5 40.5t163 109t109 163t40.5 198.5t-40.5 198.5t-109 163t-163 109t-198.5 40.5zM802 542l-368 -377q-12 -12 -30 -12t-30 12l-153 161q-11 13 -10 30.5
t14 30t30.5 12.5t29.5 -12l120 -127l334 343q12 12 29.5 12t30.5 -12.5t14 -30t-11 -30.5z" />
    <glyph glyph-name="screen" unicode="&#xe63f;" 
d="M824 735h-593q-13 0 -18.5 -11t1.5 -21l224 -325v-276q0 -12 10 -18q5 -3 10.5 -3t10.5 3l138 81q10 6 10 17v196l224 325q7 10 1.5 21t-18.5 11zM580 396q-4 -6 -4 -12v0v-190l-97 -57v247q0 6 -4 12l-205 298h515z" />
    <glyph glyph-name="zhaoxiannashi" unicode="&#xe645;" 
d="M528 735q-114 0 -194.5 -80.5t-80.5 -194.5q0 -58 23.5 -111t65.5 -92l170 -182q7 -7 16.5 -7t15.5 7l169 181q43 39 67 92.5t24 111.5q0 114 -81 194.5t-195 80.5zM528 122l-133 142q13 35 50 57t83.5 22t83 -22t49.5 -57zM464 480q0 26 19 45t45 19t45 -19t19 -45
t-19 -44.5t-45 -18.5t-45 18.5t-19 44.5zM693 298q-18 31 -50 53.5t-73 30.5q29 12 47 39t18 59q0 44 -31.5 75.5t-75.5 31.5t-75.5 -31.5t-31.5 -75.5q0 -32 18 -59t47 -39q-41 -8 -73 -30.5t-50 -53.5q-67 68 -67 162q0 96 68 164t164 68t164 -68t68 -164q0 -93 -67 -162z
" />
    <glyph glyph-name="lianxiwomen" unicode="&#xe646;" 
d="M683 452q2 -11 14 -11h2q6 1 9.5 6t2.5 10q-11 61 -63 96q-39 26 -87 26q-14 0 -29 -3q-6 -1 -9 -5.5t-2 -10.5q2 -12 14 -12h2q12 2 24 2q39 0 71 -21q42 -28 51 -77zM777 273q-18 17 -45 36q-26 19 -50 31q-27 15 -41 15q-19 0 -32 -19q-6 -8 -14 -27q-6 -14 -8 -18
q-14 4 -40 22q-33 23 -60 49q-27 28 -50 61q-18 26 -22 40q5 2 18 8v0q19 8 27 14q19 13 19 32q0 14 -15 42q-12 23 -30 49q-19 28 -36 46q-24 24 -41 24q-30 0 -69 -53q-39 -52 -39 -95q0 -44 43 -115q41 -67 104 -131l13 -13v0q64 -62 130 -104q71 -43 115 -43q42 0 94 39
q53 39 53 70q0 17 -24 40zM754 218q-12 -13 -29 -26q-42 -31 -71 -31q-33 0 -95 38q-63 39 -124 99l-13 12q-59 61 -98 125q-38 62 -38 95q0 30 30 71q14 18 27 30q8 7 14 9q17 -10 48 -56q16 -23 27 -43q8 -15 10 -23q-2 -2 -5 -4q-5 -3 -19 -8q-16 -8 -23 -12
q-18 -12 -18 -29q1 -21 29 -63q25 -36 54 -66v0q30 -29 66 -54q42 -29 63 -29v0q17 0 29 17q4 7 11 24q6 13 9 18q2 4 4 5q7 -2 23 -10q20 -10 43 -26q45 -32 55 -49q-2 -6 -9 -14zM601 484q-23 16 -52 16q-8 0 -17 -2q-6 -1 -9 -5.5t-2 -10.5q2 -12 14 -12h2q6 1 12 1
q20 0 37 -11q21 -14 25 -38q3 -12 15 -12h2q6 1 9.5 6t2.5 11q-7 36 -39 57zM806 466q-17 96 -100 151q-62 41 -137 41q-23 0 -45 -4q-6 -1 -9.5 -6t-2.5 -11q2 -11 14 -11h3q20 3 40 3q67 0 122 -36q72 -48 87 -132q2 -12 14 -12q1 0 3 1q5 1 8.5 5.5t2.5 10.5z" />
    <glyph glyph-name="zuixindongtai" unicode="&#xe647;" 
d="M715 399q0 40 -19.5 73t-52.5 52q-6 3 -10 3q-7 0 -12 -5t-5 -12q0 -10 8 -15q26 -15 41 -40t15 -56q0 -30 -15.5 -56t-42.5 -40q-8 -5 -8 -15q0 -7 5 -12t12 -5l9 3q34 18 54.5 52t20.5 73zM695 612q-6 3 -11 3q-7 0 -12 -5t-5 -12q0 -10 10 -15q48 -28 77 -77
t29 -106.5t-29 -106.5t-77 -77q-10 -5 -10 -15q0 -7 5 -12t12 -5q4 0 10 3q56 33 89.5 89.5t33.5 123t-33.5 123t-88.5 89.5zM516 255v-69l-16 16t-18 17q-47 38 -65 49t-28 11h-12h-93q-9 0 -10 1t-1 10v220q0 7 2 9.5t9 2.5h81q30 0 109 57q8 6 22.5 18.5t19.5 16.5v-370
v11zM551 244v393q0 18 -12 23.5t-26 -5.5q-25 -20 -65 -50q-54 -39 -83 -49h-69h-35q-7 0 -15 -8t-8 -15v-266q0 -7 8 -15t15 -8h116q28 -10 77 -50q14 -12 58 -49q6 -5 14 -5v0q4 0 8 1q6 3 11.5 9.5t5.5 12.5v15v30v33.5v13.5v-11z" />
    <glyph glyph-name="caretleft" unicode="&#xe60b;" 
d="M631 820l-489 -403q-14 -13 -14 -32t14 -32l489 -405q21 -18 46 -7t25 39v808q0 28 -25 39t-46 -7z" />
    <glyph glyph-name="caretright" unicode="&#xe60c;" 
d="M393 820l489 -403q14 -13 14 -32t-14 -32l-489 -405q-21 -18 -46 -7t-25 39v808q0 28 25 39t46 -7z" />
    <glyph glyph-name="xuanzecaigoudan" unicode="&#xe602;" 
d="M870 -128h-693q-30 0 -51 21t-21 49v768q0 28 21 49t51 21h160v-89q0 -21 9.5 -37t21.5 -16h309q13 0 21.5 15.5t8.5 37.5v89h161q30 0 51 -21t21 -49v-768q2 -28 -19 -49t-51 -21zM780 477h-512v-46h512v46zM780 291h-512v-47h512v47zM780 105h-512v-47h512v47zM647 663
h-244q-18 0 -30 9.5t-12 23.5v67q0 14 12 23.5t30 9.5h2q-2 5 -2 16q0 35 36 59.5t87 24.5t87 -24.5t36 -59.5q0 -11 -2 -16h2q18 0 30 -9.5t12 -23.5v-67q-3 -15 -15 -24t-29 -9zM563 849h-70v-69h70v69z" />
    <glyph glyph-name="shengchengdingdan" unicode="&#xe603;" 
d="M807 268q-82 0 -139 -58t-57 -140t57 -140t139 -58t139 58t57 140t-58 140t-138 58zM925 86l-118 -100l-7 -7l7 7l-3 -1.5t-10 -3.5t-15 -2.5t-19 3.5t-20 12l-27 27q-8 8 -8 20t8.5 20.5t20 8.5t20.5 -9l17 -18l101 85q10 8 24.5 8t26.5 -8q13 -8 13.5 -21t-11.5 -21z
M306 673h234q17 0 28.5 9t11.5 23v64q0 13 -11.5 22t-28.5 9h-2q2 5 2 16q0 33 -35 56.5t-83.5 23.5t-83 -23.5t-34.5 -56.5q0 -11 2 -16h-2q-17 0 -28.5 -9t-11.5 -22v-64q1 -14 13 -23t29 -9zM391 851h66v-66h-66v66zM547 95h-370v44h376q20 80 85 134h-461v44h490v-24
q60 40 140 40h16v385q0 27 -20.5 47t-48.5 20h-154v-85q0 -20 -8.5 -35.5t-20.5 -15.5h-298q-12 0 -20.5 15t-8.5 36v85h-154q-28 0 -48.5 -20t-20.5 -47v-735q0 -27 20.5 -46.5t48.5 -19.5h503q-49 66 -49 153q0 16 3 25zM177 495h490v-44h-490v44z" />
    <glyph glyph-name="querengongyingshang" unicode="&#xe604;" 
d="M981 609l-565 -570q-20 -20 -49.5 -20t-50.5 20l-7 7q-2 0 -2 2l-265 269q-20 20 -20 50t20 50t49 20t51 -20l225 -227l514 521q20 20 49.5 20t50.5 -20q22 -20 21.5 -50t-21.5 -52z" />
    <glyph glyph-name="dingdanguanli" unicode="&#xe605;" 
d="M995 491l-93 -54q5 -32 5 -51q0 -39 -7 -74l95 -55q17 -11 23 -30.5t-5 -37.5l-97 -169q-10 -17 -30 -22t-37 4l-109 62q-35 -24 -77 -41v-102q0 -21 -13.5 -35t-34.5 -14h-197q-21 0 -35 14t-14 35v102q-42 16 -83 46l-116 -67q-17 -11 -36.5 -5t-28.5 23l-97 169
q-10 18 -4.5 37.5t22.5 30.5l105 60q-7 35 -7 69q0 8 1 23.5t1 23.5l-102 58q-17 10 -22 30t4 37l97 169q10 17 30 22t37 -6l97 -56q39 33 102 61v99q0 21 14 35t35 14h197q21 0 34.5 -14t13.5 -35v-102q55 -21 95 -55l91 51q17 10 36.5 4.5t30.5 -23.5l97 -169
q11 -14 5.5 -33t-23.5 -29zM515.5 581q-81.5 0 -139.5 -57.5t-58 -137.5t58 -137t139.5 -57t139 57t57.5 137t-57.5 137.5t-139 57.5z" />
    <glyph glyph-name="caigouguanli" unicode="&#xe608;" 
d="M978 154l-21 -11v-35l21 -16q15 -7 19 -26.5t-4 -34.5l-36 -67q-13 -20 -35 -20q-16 0 -21 5l-25 15q-5 -2 -11.5 -9.5t-14.5 -10.5v-21q0 -19 -13.5 -35t-32.5 -16h-77q-19 0 -32.5 16t-13.5 35v26q0 7 -26 20l-25 -15q-5 -5 -21 -5q-11 0 -21.5 6t-14.5 14l-35 67
q-8 15 -4 32.5t19 28.5l20 16v35l-20 11q-15 7 -19.5 26.5t4.5 34.5l35 67q14 20 36 20q16 0 21 -5l25 -15q11 10 26 10v36q0 36 46 36h77q46 0 46 -36v-31q9 -3 15.5 -8.5t10.5 -6.5l25 15q5 5 21 5q11 0 21 -6t14 -14l36 -67q8 -19 4 -39t-19 -27zM957 189l-35 62
q0 5 -16 5l-36 -26l-61 36v36q0 4 -3 7t-7 3h-72q-4 0 -7 -3t-3 -7v-36l-67 -36l-25 11q-16 10 -26 0l-31 -52q-5 -5 5 -15l41 -20v-62l-41 -25q-5 0 -5 -16l36 -61q0 -5 16 -5l46 20l51 -36v-36q0 -3 3 -6.5t7 -3.5h77q4 0 7 3.5t3 6.5v36l51 36l46 -20q11 0 16 5l36 61
q0 10 -6 16l-46 25v62l46 20v15zM762.5 41q-34.5 0 -58 23.5t-23.5 58t23.5 58.5t58 24t58.5 -24t24 -58.5t-24 -58t-58.5 -23.5zM763 174q-20 0 -35.5 -14.5t-15.5 -36.5q0 -20 14.5 -35.5t36.5 -15.5q20 0 35.5 14.5t15.5 36.5q-4 20 -18.5 35.5t-32.5 15.5zM845 389h-461
v-159h133q-20 -30 -25 -51h-108v-159h97q4 -7 10 -16.5t10 -17.5t6 -17h-323l-56 210l-51 210h-51v149h189l210 210q-15 15 -15 46q0 42 30 72t72 30t72 -30t30 -72q0 -26 -10 -46l205 -210h138v-149h-102zM220 20h113v159h-154zM169 230h164v159h-210zM512 845
q-23 0 -37 -14t-14 -37t14 -37.5t37 -14.5t37 14.5t14 37.5t-14 37t-37 14zM568 707q-23 -16 -56 -16t-56 16l-169 -169h450zM870 486h-768q-11 0 -18 -6t-7 -14q0 -12 7 -19t18 -7h774q11 0 18 7t7 19q-10 20 -31 20z" />
    <glyph glyph-name="jinricaigou" unicode="&#xe609;" 
d="M967 327l-114 -455h-682l-57 228l-57 227h-57v171h182l233 233q-17 17 -17 51q0 47 33.5 80.5t80.5 33.5t80.5 -33.5t33.5 -80.5q0 -28 -12 -51l228 -233h182v-171h-57zM683 -71h131l45 171h-171v-171h-5zM683 156h187l46 171h-228v-171h-5zM398 -71h228v171h-228v-171z
M398 156h228v171h-228v-171zM210 -71h131v171h-170zM154 156h187v171h-227zM512 839q-26 0 -41.5 -15.5t-15.5 -41t15.5 -41.5t41.5 -16t41.5 16t15.5 41.5t-15.5 41t-41.5 15.5zM575 686q-26 -18 -63 -18t-63 18l-187 -188h500zM939 441h-854q-12 0 -20 -8t-8 -20.5
t8 -20.5t20 -8h854q12 0 20 8t8 20.5t-8 20.5t-20 8z" />
    <glyph glyph-name="tuichu" unicode="&#xe60a;" 
d="M926 692l-82 -84q28 -42 47 -107.5t19 -116.5v0q0 -83 -33 -159.5t-88 -132t-130.5 -89t-156.5 -33.5q-107 0 -197 56.5t-140.5 151t-50.5 206.5q0 122 66 224l-82 84q-40 -57 -69 -147t-29 -161v0q0 -107 39 -202t106 -163t160 -107.5t197 -39.5q105 0 201 39.5
t166.5 107.5t112.5 163t42 202q0 170 -98 308zM553 335q0 -22 -15 -37.5t-36 -15.5t-36 15.5t-15 37.5v508q0 22 15 37.5t36 15.5t36 -15.5t15 -37.5v-508z" />
    <glyph glyph-name="yanjing" unicode="&#xe601;" 
d="M1001 521q8 12 6 26t-13 23q-12 10 -26 7.5t-24 -14.5v0q-13 -14 -29 -31t-63 -56.5t-94 -69t-114.5 -53t-131.5 -23.5q-62 0 -129 24t-114.5 53.5t-95.5 69.5t-65 57t-29 31h-1q-9 11 -24 12t-25.5 -8.5t-11.5 -24t8 -25.5q3 -4 15.5 -17.5t40 -39t58.5 -49.5l-91 -94
q-10 -11 -9.5 -25.5t11.5 -24.5q5 -10 21 -10q14 0 25 10l97 101q78 -53 162 -83l-38 -126q-4 -14 3.5 -27t21.5 -17h11q12 0 21.5 7.5t11.5 19.5l38 125q47 -8 88 -8t89 8l37 -124q2 -11 12 -18.5t22 -7.5q7 0 8 2q15 4 22 16.5t3 27.5l-37 124q83 29 161 83l96 -99
q10 -11 24.5 -11t25 10.5t11 25t-9.5 25.5l-90 93q32 24 61 50t41 41z" />
  </font>
</defs>
</svg>
